<?xml version="1.0" encoding="utf-8"?>
<!-- Generator: Adobe Illustrator 27.2.0, SVG Export Plug-In . SVG Version: 6.00 Build 0)  -->
<svg version="1.1" xmlns="http://www.w3.org/2000/svg" xmlns:xlink="http://www.w3.org/1999/xlink" x="0px" y="0px"
	 viewBox="0 0 65.1 65.1" style="enable-background:new 0 0 65.1 65.1;" xml:space="preserve">
<style type="text/css">
	.st0{display:none;}
	.st1{display:inline;}
	.st2{fill:#5D388C;}
	.st3{fill:#FFFFFF;}
	.st4{fill:none;stroke:#FFFFFF;stroke-width:0.2;}
	.st5{fill:none;stroke:#FFFFFF;stroke-width:0.4;}
	.st6{fill:#007AFF;}
</style>
<g id="Ebene_2_00000170965576183700244580000007534065491454802323_" class="st0">
	<g id="Ebene_1-2" class="st1">
		<path class="st2" d="M2.3,32.5C2.4,15.8,16,2.3,32.7,2.4c16.7,0.1,30.2,13.7,30.1,30.4c0,16.7-13.7,30.2-30.4,30.1
			C15.7,62.8,2.2,49.2,2.3,32.5"/>
		<path class="st2" d="M4.1,32.5c0-7.9,3.2-14.9,8.4-20s12.2-8.3,20.1-8.3h0.1l0,0c7.8,0,14.9,3.2,20.1,8.4
			c5.1,5.2,8.3,12.2,8.3,20.1v0.1l0,0l0,0c0,7.9-3.2,14.9-8.4,20.1c-5.2,5.1-12.2,8.3-20.1,8.3h-0.1c-7.9,0-14.9-3.2-20.1-8.4
			c-5.1-5.2-8.3-12.2-8.3-20.1L4.1,32.5H0.5v0.1c0,8.8,3.6,16.8,9.3,22.6c5.8,5.8,13.8,9.4,22.6,9.4h0.1c8.8,0,16.8-3.6,22.6-9.3
			s9.4-13.8,9.4-22.6l0,0l0,0v-0.1c0-8.8-3.6-16.8-9.3-22.6c-5.8-5.8-13.7-9.4-22.6-9.4l0,0h-0.1c-8.8,0-16.8,3.6-22.6,9.3
			S0.5,23.7,0.5,32.5H4.1z"/>
		<path class="st3" d="M60.6,32.7h-1.2c0,7.4-3,14.1-7.9,19s-11.6,7.9-19,7.9s-14.1-3-19-7.9s-7.9-11.6-7.9-19s3-14.1,7.9-19
			s11.6-7.9,19-7.9s14.1,3,19,7.9s7.9,11.6,7.9,19h2.4c0-8.1-3.3-15.4-8.6-20.7C48,6.7,40.7,3.5,32.6,3.5S17.2,6.7,11.9,12
			S3.3,24.6,3.3,32.7s3.3,15.4,8.6,20.7S24.5,62,32.6,62s15.4-3.3,20.7-8.6s8.6-12.6,8.6-20.7C61.8,32.7,60.6,32.7,60.6,32.7z"/>
		<path class="st3" d="M51.9,37.9c0.2,0.7,0.7,1.2,1.2,1l0.3-0.1c0.5-0.1,0.8-0.8,0.6-1.4l-2.3-10c-0.2-0.7-0.7-1.1-1.2-1l-0.3,0.1
			c-0.5,0.1-0.8,0.8-0.6,1.4L51.9,37.9L51.9,37.9z"/>
		<path class="st4" d="M51.9,37.9c0.2,0.7,0.7,1.2,1.2,1l0.3-0.1c0.5-0.1,0.8-0.8,0.6-1.4l-2.3-10c-0.2-0.7-0.7-1.1-1.2-1l-0.3,0.1
			c-0.5,0.1-0.8,0.8-0.6,1.4L51.9,37.9L51.9,37.9z"/>
		<path class="st3" d="M47,40.5c0.2,0.8,1,1.4,1.9,1.2l0.5-0.1c0.8-0.2,1.4-1,1.2-1.9l-2.8-12.3c-0.2-0.8-1-1.4-1.9-1.2l-0.5,0.1
			c-0.8,0.2-1.4,1-1.2,1.9L47,40.5L47,40.5z"/>
		<path class="st3" d="M49,35.7c-8.3,4.2-16.3,4-16.5,3.9c-0.2,0-8.4,0.3-16.7-4.1c-0.4-0.2,0.8-2.3,0.8-2.3s7,3.8,15.9,3.8
			c9,0.1,15.9-3.8,15.9-3.8L49,35.7L49,35.7z"/>
		<path class="st3" d="M13,38c-0.2,0.7-0.7,1.2-1.2,1h-0.3c-0.5-0.1-0.8-0.8-0.6-1.4l2.3-10c0.2-0.7,0.7-1.1,1.2-1l0.3,0.1
			c0.5,0.1,0.8,0.8,0.6,1.4L13,38L13,38z"/>
		<path class="st4" d="M13,38c-0.2,0.7-0.7,1.2-1.2,1h-0.3c-0.5-0.1-0.8-0.8-0.6-1.4l2.3-10c0.2-0.7,0.7-1.1,1.2-1l0.3,0.1
			c0.5,0.1,0.8,0.8,0.6,1.4L13,38L13,38z"/>
		<path class="st3" d="M18,40.5c-0.2,0.8-1,1.4-1.9,1.2l-0.5-0.1c-0.8-0.2-1.4-1-1.2-1.9l2.8-12.3c0.2-0.8,1-1.4,1.9-1.2l0.5,0.1
			c0.8,0.2,1.4,1,1.2,1.9L18,40.5L18,40.5z"/>
		<path class="st3" d="M9.1,30.9c0.1-0.4,0.6-0.7,1.2-0.5s0.9,0.6,0.8,1l-0.3,1.4c-0.1,0.4-0.6,0.7-1.2,0.6s-0.9-0.6-0.8-1L9.1,30.9
			L9.1,30.9z"/>
		<path class="st5" d="M9.1,30.9c0.1-0.4,0.6-0.7,1.2-0.5s0.9,0.6,0.8,1l-0.3,1.4c-0.1,0.4-0.6,0.7-1.2,0.6s-0.9-0.6-0.8-1L9.1,30.9
			L9.1,30.9z"/>
		<path class="st3" d="M55.9,30.9c-0.1-0.4-0.6-0.7-1.2-0.5c-0.5,0.1-0.9,0.6-0.8,1l0.3,1.4c0.1,0.4,0.6,0.7,1.2,0.5
			c0.5-0.1,0.9-0.6,0.8-1L55.9,30.9z"/>
		<path class="st5" d="M55.9,30.9c-0.1-0.4-0.6-0.7-1.2-0.5c-0.5,0.1-0.9,0.6-0.8,1l0.3,1.4c0.1,0.4,0.6,0.7,1.2,0.5
			c0.5-0.1,0.9-0.6,0.8-1L55.9,30.9z"/>
	</g>
</g>
<g id="Ebene_3">
	<path class="st6" d="M39.7,25.2c2.4,2.4,7,1.8,10.3-1.5c3.2-3.2,3.9-7.9,1.5-10.3c-2.4-2.4-7-1.8-10.3,1.5
		C37.9,18.1,37.2,22.7,39.7,25.2"/>
	<path class="st6" d="M64.3,13.5c-1.5,6.2-5.4,14.7-14.8,25.3l-1,9.8c-0.3,2.3-1.3,4.5-3,6.2l-9.7,9.7c-0.8,0.8-2.1,0.8-2.9,0
		c-0.5-0.5-0.7-1.1-0.6-1.8l1.1-7.7c0.2-1.1-0.1-2.4-0.5-3.9c-0.3-0.9-0.6-1.8-1-2.7l-0.3-0.8c-3.3-0.8-6.4-2.7-8.9-5.2
		c-2.5-2.5-4.4-5.6-5.2-8.9l-0.8-0.3c-0.9-0.4-1.8-0.7-2.7-1c-1.5-0.5-2.7-0.7-3.9-0.5l-7.7,1.1C1.2,32.8,0.2,32,0,30.9
		c-0.1-0.7,0.1-1.3,0.6-1.8l9.7-9.7c1.7-1.7,3.9-2.7,6.2-3h0l9.8-1C36.6,6.3,45.1,2.4,51.4,0.8C55,0,57.8-0.1,59.8,0.1
		c1,0.1,1.8,0.2,2.3,0.4c0.3,0.1,0.5,0.1,0.7,0.2c0.7,0.2,1.1,0.5,1.4,1.2l0.1,0.3c0.3,1,0.5,1.9,0.6,2.9C65.2,7,65.2,9.9,64.3,13.5
		z M44.7,43.8l0.2-0.2l-0.4,4.4c-0.2,1.4-0.8,2.7-1.8,3.7l-5.3,5.3l0.2-1.5c0.3-2.1-0.1-4-0.7-5.8c-0.2-0.6-0.4-1.2-0.7-1.8
		C39.2,47.7,42.1,46.4,44.7,43.8z M21.2,20.3c-2.5,2.5-3.8,5.5-4.1,8.5c-0.6-0.2-1.2-0.5-1.8-0.7c-1.7-0.6-3.7-1-5.8-0.7L8,27.7
		l5.3-5.3c1-1,2.3-1.6,3.7-1.8l4.4-0.4C21.3,20.2,21.2,20.3,21.2,20.3z M59.4,4.2c-1.5-0.1-3.9-0.1-7.1,0.7
		C46,6.4,36.4,11,24.1,23.3c-2.5,2.5-3.3,5.4-2.8,8.3c0.4,2.7,2,5.5,4.3,7.8c2.3,2.3,5.1,3.8,7.8,4.3c2.9,0.5,5.8-0.3,8.3-2.8
		c12.5-12.5,17.1-22.1,18.5-28.4C61,9.4,61,7,60.8,5.5c0-0.4-0.1-0.8-0.2-1.2C60.3,4.3,59.9,4.3,59.4,4.2L59.4,4.2z"/>
	<path class="st6" d="M28.5,49.3c-2.7-1.5-5.2-3.3-7.3-5.5c-2.3-2.3-4.3-4.9-5.7-7.8C11,40,7.4,56.5,8,57.1
		C8.5,57.6,24,53.4,28.5,49.3L28.5,49.3z"/>
</g>
</svg>
